<?xml version="1.0" standalone="no"?>
<!DOCTYPE svg PUBLIC "-//W3C//DTD SVG 20010904//EN"
 "http://www.w3.org/TR/2001/REC-SVG-20010904/DTD/svg10.dtd">
<svg version="1.0" xmlns="http://www.w3.org/2000/svg"
 width="2853.000000pt" height="1000.000000pt" viewBox="0 0 2853.000000 1000.000000"
 preserveAspectRatio="xMidYMid meet">

<g transform="translate(0.000000,1000.000000) scale(0.100000,-0.100000)"
fill="#000000" stroke="none">
<path d="M4901 8959 c-118 -14 -277 -56 -401 -105 -184 -73 -557 -273 -802
-430 -66 -43 -91 -51 -288 -100 -248 -61 -539 -148 -673 -200 -393 -155 -641
-375 -796 -705 -80 -171 -149 -400 -251 -837 -41 -173 -41 -175 -115 -292
-200 -320 -378 -666 -443 -862 -65 -196 -77 -269 -77 -458 1 -144 4 -178 28
-272 60 -242 173 -467 480 -960 l85 -136 37 -164 c166 -723 278 -991 510
-1223 192 -192 409 -306 817 -430 171 -52 567 -155 596 -155 7 0 77 -40 155
-88 374 -234 594 -354 762 -417 329 -123 619 -121 969 6 167 60 559 267 827
436 91 57 101 61 294 108 662 160 981 300 1216 535 239 237 347 493 514 1220
32 138 44 174 75 220 102 153 317 536 396 708 55 116 104 255 135 382 20 82
24 119 24 280 0 168 -3 195 -27 292 -60 238 -165 447 -471 937 l-90 144 -52
221 c-171 718 -266 940 -504 1176 -236 235 -539 369 -1214 535 l-218 54 -177
109 c-502 309 -706 406 -953 456 -97 20 -274 27 -368 15z m509 -575 c707 -82
1361 -379 1895 -861 487 -440 850 -1045 1010 -1683 76 -305 98 -492 99 -830 0
-285 -13 -429 -60 -670 -242 -1227 -1153 -2230 -2354 -2593 -783 -237 -1664
-178 -2392 160 -713 331 -1274 868 -1621 1551 -310 610 -426 1248 -351 1932
123 1124 820 2130 1832 2643 433 220 868 339 1357 371 114 7 450 -4 585 -20z"/>
<path d="M4980 8227 c-83 -42 -42 -168 50 -153 73 11 95 93 39 140 -34 29 -52
32 -89 13z"/>
<path d="M4645 8195 c-43 -42 -26 -114 31 -136 35 -13 91 12 105 48 32 84 -73
152 -136 88z"/>
<path d="M5275 8195 c-62 -61 7 -167 87 -134 35 14 62 61 52 92 -20 67 -93 89
-139 42z"/>
<path d="M4364 8170 c-55 -22 -70 -95 -29 -135 46 -47 119 -25 139 42 10 32
-18 79 -55 92 -18 6 -32 11 -33 10 -1 0 -11 -4 -22 -9z"/>
<path d="M5623 8172 c-30 -5 -63 -48 -63 -84 0 -65 94 -104 140 -58 60 60 8
156 -77 142z"/>
<path d="M4050 8087 c-83 -42 -42 -168 50 -153 43 7 70 38 70 80 -1 35 -15 57
-47 74 -27 15 -42 15 -73 -1z"/>
<path d="M5912 8090 c-31 -13 -55 -71 -43 -104 22 -57 94 -74 136 -31 37 36
34 86 -6 119 -32 27 -50 31 -87 16z"/>
<path d="M3735 7965 c-35 -34 -33 -78 5 -117 26 -25 36 -29 63 -24 46 9 71 38
71 82 0 73 -88 111 -139 59z"/>
<path d="M6189 7961 c-17 -18 -29 -40 -29 -56 0 -34 50 -85 84 -85 41 0 80 41
80 85 0 29 -7 43 -28 61 -37 32 -71 30 -107 -5z"/>
<path d="M5090 7940 c0 -5 3 -10 8 -10 4 -1 34 -25 67 -54 l59 -54 -84 -43
-85 -43 55 -7 c30 -4 83 -7 117 -8 56 -1 66 2 98 31 20 17 53 34 73 38 l37 6
-36 16 c-20 9 -46 31 -57 50 -26 42 -51 54 -139 68 -37 6 -78 13 -90 16 -13 2
-23 0 -23 -6z m171 -31 c25 -6 49 -24 74 -55 l38 -46 -49 7 c-89 12 -99 16
-154 67 l-55 50 55 -7 c30 -4 71 -11 91 -16z m92 -108 c14 -1 8 -10 -23 -36
-45 -38 -74 -42 -189 -28 l-54 6 72 37 c66 33 77 36 124 29 29 -4 60 -8 70 -8z"/>
<path d="M4780 7936 c0 -2 34 -27 76 -56 l75 -52 -56 -35 c-31 -19 -54 -37
-51 -40 2 -3 28 11 58 31 49 33 59 36 126 36 l73 0 -45 -39 c-52 -45 -95 -56
-176 -42 -43 7 -58 6 -70 -5 -12 -12 -3 -14 70 -14 108 0 153 13 183 51 13 17
41 36 62 43 l39 14 -32 7 c-18 4 -49 24 -70 47 -34 36 -45 40 -107 48 -73 10
-155 13 -155 6z m198 -22 c13 -3 41 -23 62 -44 l39 -40 -66 0 c-62 0 -70 3
-135 47 -37 25 -68 48 -68 50 0 5 134 -6 168 -13z"/>
<path d="M5438 7857 c34 -34 62 -65 62 -68 0 -3 -36 -18 -80 -34 -44 -16 -80
-32 -80 -35 0 -7 164 -40 197 -40 11 0 38 12 59 27 21 14 55 29 74 33 l35 6
-32 17 c-18 10 -42 35 -53 57 -11 22 -28 44 -38 49 -24 13 -143 43 -149 38 -2
-3 27 -12 66 -22 70 -17 83 -26 130 -94 21 -29 21 -32 5 -28 -11 3 -42 10 -70
17 -41 9 -61 22 -104 65 -29 29 -49 58 -46 64 5 7 -2 11 -16 11 -19 0 -14 -9
40 -63z m130 -88 c80 -18 79 -18 28 -51 l-48 -32 -76 13 c-110 19 -114 24 -35
54 82 31 73 30 131 16z"/>
<path d="M4520 7902 c-27 -6 -31 -9 -17 -14 9 -4 29 -3 43 2 35 14 141 13 167
-1 12 -7 36 -24 53 -39 l32 -27 -69 -6 c-65 -6 -72 -4 -130 29 -34 19 -64 33
-66 30 -2 -2 23 -19 57 -37 33 -18 57 -35 53 -39 -4 -3 -33 -26 -63 -50 -30
-24 -59 -48 -65 -53 -6 -6 18 -7 65 -3 128 12 139 15 185 64 24 25 57 51 72
58 l28 12 -32 1 c-23 1 -45 12 -74 39 -41 36 -44 37 -123 39 -45 1 -97 -2
-116 -5z m250 -122 c-34 -47 -63 -61 -147 -71 -42 -5 -78 -7 -80 -6 -1 2 23
23 55 47 60 48 83 57 150 59 l43 1 -21 -30z"/>
<path d="M5670 7867 c0 -2 22 -32 50 -68 27 -35 50 -67 50 -70 0 -3 -39 -17
-87 -29 l-86 -24 83 -28 c99 -33 148 -35 192 -8 18 11 49 20 68 20 l35 1 -28
21 c-15 11 -37 40 -48 64 -24 51 -40 62 -139 97 -72 26 -90 31 -90 24z m177
-73 c20 -13 79 -112 71 -119 -2 -1 -22 -12 -45 -24 -54 -27 -93 -27 -174 1
l-64 22 65 19 c36 10 71 20 79 23 10 3 7 12 -11 37 -13 17 -37 49 -52 69 l-28
38 68 -26 c38 -14 79 -32 91 -40z"/>
<path d="M4278 7847 c-38 -5 -68 -12 -68 -16 0 -3 37 -21 81 -40 l81 -34 -63
-63 c-70 -70 -69 -72 41 -49 91 19 117 33 150 81 14 21 39 46 55 54 l30 14
-40 6 c-22 4 -58 18 -79 33 -43 30 -70 32 -188 14z m187 -24 c54 -36 56 -40
33 -79 -29 -50 -62 -71 -126 -84 -31 -6 -66 -14 -77 -17 -13 -3 1 16 37 53 51
51 63 58 120 70 34 6 52 12 38 13 -14 0 -43 -4 -64 -9 -34 -7 -50 -4 -113 22
-40 17 -71 33 -69 35 6 7 96 21 141 22 29 1 52 -7 80 -26z"/>
<path d="M3452 7827 c-50 -53 -13 -137 59 -137 47 0 79 34 79 81 0 71 -90 107
-138 56z"/>
<path d="M6479 7837 c-46 -35 -47 -105 -3 -134 85 -55 180 52 109 122 -27 27
-79 33 -106 12z"/>
<path d="M4027 7765 c-49 -13 -90 -25 -92 -27 -3 -2 34 -17 80 -32 58 -18 83
-31 78 -39 -3 -7 -29 -38 -56 -69 -33 -39 -44 -58 -33 -58 9 0 16 6 16 13 0 6
23 37 50 68 38 43 60 59 95 69 25 7 44 15 42 17 -3 2 -25 -2 -50 -9 -41 -11
-54 -9 -123 12 l-77 24 59 19 c86 26 133 25 183 -5 27 -16 38 -28 29 -31 -9
-4 -8 -6 4 -6 14 -1 13 -7 -9 -46 -27 -49 -48 -63 -135 -91 -32 -9 -56 -19
-54 -22 8 -7 140 40 160 57 10 9 26 32 37 52 10 20 31 46 46 58 l28 20 -37 1
c-20 0 -58 11 -84 25 -56 30 -47 30 -157 0z"/>
<path d="M5971 7753 c13 -21 33 -54 46 -73 13 -19 23 -37 23 -41 0 -3 -39 -12
-86 -19 -47 -7 -82 -16 -77 -21 17 -17 158 -71 188 -72 18 0 49 7 69 17 25 12
49 16 69 12 l31 -6 -32 33 c-18 18 -32 39 -32 47 0 39 -42 81 -119 120 -45 22
-86 40 -92 40 -6 0 0 -17 12 -37z m136 -45 c18 -11 33 -20 33 -21 0 -1 9 -26
19 -54 10 -29 16 -55 12 -58 -14 -15 -76 -35 -106 -35 -18 0 -64 13 -101 29
-76 32 -77 31 35 50 47 8 60 6 109 -16 30 -13 56 -22 59 -20 2 3 -21 15 -52
27 -47 19 -62 32 -92 78 -52 83 -52 85 3 61 27 -11 64 -29 81 -41z"/>
<path d="M3185 7665 c-44 -43 -31 -112 25 -135 86 -35 156 83 82 140 -34 27
-77 25 -107 -5z"/>
<path d="M6220 7685 c0 -3 18 -41 40 -85 l40 -80 -42 -1 c-24 0 -65 -4 -93 -7
l-50 -7 88 -48 c82 -45 92 -48 135 -42 26 3 69 7 95 7 l48 1 -24 26 c-14 14
-28 42 -32 61 -4 19 -12 43 -17 53 -12 23 -188 137 -188 122z m120 -78 c25
-17 50 -38 55 -46 12 -20 35 -101 28 -101 -3 0 -30 14 -61 31 -48 28 -58 40
-83 95 -16 35 -29 66 -29 69 0 8 35 -11 90 -48z m27 -129 l56 -32 -34 -12
c-60 -22 -99 -16 -173 26 l-69 38 34 5 c97 12 129 7 186 -25z"/>
<path d="M6739 7661 c-17 -18 -29 -40 -29 -56 0 -16 12 -38 29 -56 18 -17 40
-29 56 -29 16 0 38 12 56 29 17 18 29 40 29 56 0 16 -12 38 -29 56 -18 17 -40
29 -56 29 -16 0 -38 -12 -56 -29z"/>
<path d="M3741 7648 c-93 -35 -92 -37 27 -58 39 -7 72 -15 72 -17 0 -2 -23
-37 -50 -78 -28 -41 -49 -75 -46 -75 14 0 174 74 190 88 10 9 27 37 38 62 10
25 29 53 41 62 22 17 22 18 -18 18 -22 0 -51 7 -65 15 -39 22 -97 17 -189 -17z
m174 12 c3 -5 20 -13 37 -18 30 -8 30 -8 -35 -34 -65 -25 -66 -25 -142 -10
-42 8 -72 18 -68 22 36 33 194 63 208 40z m49 -84 c-8 -24 -23 -51 -33 -60
-17 -15 -161 -79 -161 -71 0 2 20 33 45 68 37 54 53 68 97 85 29 11 56 21 60
21 4 1 0 -19 -8 -43z"/>
<path d="M3580 7551 c-14 -5 -59 -25 -100 -47 l-75 -38 90 -12 c50 -6 92 -12
93 -13 2 0 -15 -35 -37 -76 -23 -41 -41 -77 -41 -80 0 -11 155 78 177 101 12
14 27 43 33 65 6 23 22 52 36 66 l24 24 -34 -6 c-20 -4 -52 -1 -80 9 -51 18
-50 18 -86 7z m81 -16 c24 -9 49 -17 56 -20 17 -6 -11 -92 -40 -123 -22 -24
-137 -88 -137 -76 0 3 14 33 32 65 26 50 41 65 92 94 72 41 68 46 -7 8 -31
-16 -66 -26 -87 -25 -57 3 -132 14 -127 19 6 6 160 73 168 73 4 0 26 -7 50
-15z"/>
<path d="M6485 7539 c4 -13 18 -51 31 -83 13 -33 24 -64 24 -69 0 -6 -32 -7
-85 -3 -47 3 -85 2 -85 -2 0 -13 138 -103 171 -112 15 -5 46 -4 68 2 28 7 50
7 71 0 28 -10 29 -10 20 8 -6 10 -15 22 -20 25 -6 3 -10 20 -10 36 0 58 -25
95 -110 159 -68 52 -81 58 -75 39z m112 -79 c38 -27 60 -70 65 -125 2 -35 0
-40 -22 -46 -14 -4 -45 -7 -71 -8 -38 -1 -55 6 -108 43 -35 25 -64 46 -66 48
-2 2 33 1 78 -1 75 -3 86 -6 130 -38 26 -20 50 -33 52 -31 3 3 -19 21 -47 41
-44 30 -57 46 -75 94 -41 108 -41 101 -2 72 19 -14 48 -36 66 -49z"/>
<path d="M2935 7475 c-26 -25 -33 -72 -15 -104 16 -31 65 -46 100 -31 37 15
50 37 50 84 0 68 -86 101 -135 51z"/>
<path d="M6989 7471 c-17 -18 -29 -40 -29 -56 0 -16 12 -38 29 -56 18 -17 40
-29 56 -29 16 0 38 12 56 29 17 18 29 40 29 56 0 16 -12 38 -29 56 -18 17 -40
29 -56 29 -16 0 -38 -12 -56 -29z"/>
<path d="M3516 7403 c-4 -5 -49 -8 -99 -8 l-92 0 -80 -52 -80 -53 97 0 97 0
-35 -81 c-19 -45 -33 -83 -31 -85 5 -6 146 97 165 121 11 13 22 42 26 63 3 22
15 51 27 66 19 24 23 47 5 29z m-37 -27 c11 -7 -13 -112 -30 -133 -13 -15
-124 -93 -133 -93 -3 0 8 30 23 68 24 58 35 72 84 106 72 50 67 60 -6 11 -52
-35 -57 -36 -135 -33 l-81 3 72 43 c69 42 74 43 135 38 35 -3 67 -8 71 -10z"/>
<path d="M6730 7385 c0 -17 33 -135 37 -131 2 2 -2 29 -11 60 l-14 56 49 -41
c69 -57 86 -86 90 -147 2 -28 2 -52 -1 -52 -13 1 -100 90 -100 102 0 11 -2 11
-9 0 -6 -11 -24 -11 -91 -2 -45 6 -84 10 -85 8 -5 -4 125 -112 152 -126 12 -7
49 -11 82 -10 36 1 66 -3 73 -10 23 -23 27 -12 8 21 -13 20 -20 50 -20 80 0
46 -3 52 -62 114 -58 60 -98 92 -98 78z m-14 -170 c53 -6 66 -12 113 -53 l53
-47 -56 -3 c-65 -3 -89 8 -161 74 -31 28 -43 44 -30 40 11 -2 47 -7 81 -11z"/>
<path d="M4980 7125 l0 -215 -65 0 -65 0 0 -100 0 -100 -310 0 -310 0 0 235 0
235 -40 0 -40 0 0 -235 0 -235 -375 0 -374 0 -3 88 -3 87 -42 3 -43 3 0 -90 0
-91 -70 0 -70 0 0 -40 0 -40 70 0 70 0 0 -375 0 -375 -215 0 -215 0 0 -45 0
-45 215 0 215 0 0 -36 0 -37 -115 5 -115 4 2 -175 3 -176 60 -2 c33 -2 84 -5
113 -9 l52 -5 0 -85 0 -84 -110 0 -110 0 0 -75 0 -75 -230 0 -230 0 0 -40 0
-40 230 0 230 0 0 -60 0 -60 110 0 110 0 0 -315 0 -315 -215 0 -215 0 0 -45 0
-45 215 0 215 0 0 -375 0 -375 -70 0 -70 0 0 -45 0 -45 70 0 70 0 0 -60 0 -60
45 0 45 0 0 60 0 60 375 0 375 0 0 -205 0 -205 40 0 40 0 0 205 0 205 310 0
310 0 0 -85 0 -85 65 0 65 0 2 -217 3 -218 40 0 40 0 3 218 2 217 65 0 65 0 0
85 0 85 310 0 310 0 0 -205 0 -205 40 0 40 0 0 205 0 205 375 0 375 0 0 -60 0
-60 45 0 45 0 0 60 0 59 78 3 77 3 3 43 3 42 -80 0 -81 0 0 375 0 375 230 0
230 0 0 45 0 45 -230 0 -230 0 0 315 0 315 100 0 100 0 0 60 0 60 230 0 230 0
0 40 0 40 -230 0 -230 0 0 75 0 75 -100 0 -100 0 0 300 0 300 230 0 230 0 0
45 0 45 -230 0 -230 0 0 375 0 375 80 0 80 0 0 40 0 40 -80 0 -80 0 0 91 0 90
-42 -3 -43 -3 -3 -87 -3 -88 -100 0 -99 0 -161 81 c-89 44 -162 79 -164 77 -1
-2 -19 -38 -39 -80 l-37 -78 -74 0 -75 0 0 235 0 235 -40 0 -40 0 0 -235 0
-235 -310 0 -310 0 0 100 0 100 -65 0 -65 0 0 215 0 215 -45 0 -45 0 0 -215z
m-830 -870 l0 -375 -375 0 -375 0 0 375 0 375 375 0 375 0 0 -375z m700 0 l0
-375 -310 0 -310 0 0 375 0 375 310 0 310 0 0 -375z m970 265 l0 -109 -87 -76
c-115 -99 -266 -199 -414 -275 l-119 -61 0 316 0 315 310 0 310 0 0 -110z
m170 105 c0 -7 -81 -115 -86 -115 -2 0 -4 27 -4 60 l0 60 45 0 c25 0 45 -2 45
-5z m660 -370 l0 -375 -375 0 -375 0 0 65 0 65 153 152 c153 152 254 284 323
419 l24 49 125 0 125 0 0 -375z m-830 -335 l0 -40 -62 0 -61 0 59 39 c32 22
60 40 62 40 1 1 2 -17 2 -39z m-1670 -155 c0 -17 -7 -26 -22 -30 -49 -10 -362
-25 -540 -25 l-188 0 0 40 0 40 375 0 375 0 0 -25z m270 10 c-36 -8 -93 -17
-127 -20 -60 -7 -63 -6 -63 14 0 20 4 21 128 20 l127 -1 -65 -13z m1400 -285
l0 -300 -310 0 -310 0 2 227 3 226 100 41 c55 23 129 56 165 73 63 30 69 31
208 32 l142 1 0 -300z m830 0 l0 -300 -375 0 -375 0 0 300 0 300 375 0 375 0
0 -300z m-1800 -130 l0 -170 -310 0 -311 0 3 112 3 112 145 22 c141 22 355 65
415 83 57 18 55 24 55 -159z m-700 -65 l0 -105 -375 0 -375 0 0 83 0 84 273
13 c149 7 301 16 337 20 36 4 82 8 103 8 l37 2 0 -105z m0 -770 l0 -315 -375
0 -375 0 0 315 0 315 375 0 375 0 0 -315z m700 0 l0 -315 -310 0 -310 0 0 315
0 315 310 0 310 0 0 -315z m970 0 l0 -315 -310 0 -310 0 0 315 0 315 310 0
310 0 0 -315z m830 0 l0 -315 -375 0 -375 0 0 315 0 315 375 0 375 0 0 -315z
m-2500 -780 l0 -375 -375 0 -375 0 0 375 0 375 375 0 375 0 0 -375z m700 0 l0
-375 -310 0 -310 0 0 375 0 375 310 0 310 0 0 -375z m970 0 l0 -375 -310 0
-310 0 0 375 0 375 310 0 310 0 0 -375z m830 0 l0 -375 -375 0 -375 0 0 375 0
375 375 0 375 0 0 -375z"/>
<path d="M2725 7278 c-32 -17 -45 -39 -45 -79 0 -71 85 -105 135 -54 41 40 33
105 -16 130 -33 18 -47 18 -74 3z"/>
<path d="M7223 7265 c-42 -30 -34 -121 12 -139 60 -22 125 16 125 74 0 64 -82
103 -137 65z"/>
<path d="M3282 7238 c-8 -8 -43 -13 -90 -13 l-78 0 -77 -59 c-42 -32 -77 -61
-77 -63 0 -3 40 -2 90 2 l90 7 -16 -53 c-9 -29 -20 -63 -25 -76 -5 -14 -9 -29
-9 -34 0 -12 65 38 127 97 38 36 43 46 43 85 0 27 8 57 21 78 21 35 21 49 1
29z m-63 -27 c23 -6 22 -8 -25 -47 -46 -38 -54 -41 -129 -47 l-80 -6 30 25
c88 76 138 94 204 75z m33 -58 c-2 -27 -10 -58 -16 -69 -11 -22 -118 -116
-124 -109 -2 1 6 35 18 73 19 63 27 75 73 111 29 22 53 41 53 41 1 0 -1 -21
-4 -47z"/>
<path d="M6954 7200 c11 -53 26 -144 26 -156 0 -9 -8 -10 -32 -3 -18 5 -40 9
-48 8 -8 0 7 -7 34 -14 34 -10 64 -28 99 -62 l51 -48 -46 54 c-32 37 -48 66
-52 95 -4 22 -9 57 -13 76 l-5 35 36 -34 c70 -67 87 -102 84 -167 l-3 -59 -62
0 -63 0 -60 60 c-57 56 -59 60 -38 67 13 3 16 7 8 7 -8 1 -26 4 -40 8 -20 5
-15 -5 34 -60 66 -75 105 -97 168 -97 24 0 53 -7 64 -15 28 -21 37 -18 20 7
-10 14 -16 44 -16 83 0 69 -11 90 -95 180 -45 49 -55 55 -51 35z"/>
<path d="M3046 7044 c-17 -10 -42 -14 -61 -11 -47 8 -101 -22 -170 -93 -50
-51 -56 -60 -35 -56 90 21 160 33 160 27 -1 -3 -7 -35 -15 -71 -23 -107 -21
-110 31 -60 84 81 104 116 104 179 0 35 6 65 16 79 18 26 10 27 -30 6z m-52
-65 c-44 -44 -60 -53 -115 -65 -93 -20 -97 -18 -58 22 59 61 90 79 154 85 33
3 62 7 65 7 3 1 -18 -21 -46 -49z m56 -25 c0 -55 -1 -57 -62 -120 -34 -35 -62
-63 -64 -61 -1 1 4 34 12 72 13 61 21 76 61 118 26 26 49 47 50 47 2 0 3 -25
3 -56z"/>
<path d="M2495 7025 c-47 -46 -25 -119 42 -139 32 -10 79 18 92 54 28 82 -73
147 -134 85z"/>
<path d="M7429 7021 c-31 -31 -36 -55 -18 -94 22 -49 83 -60 125 -23 56 47 20
146 -52 146 -15 0 -38 -12 -55 -29z"/>
<path d="M7168 6920 c2 -49 3 -90 0 -90 -2 0 -38 11 -78 25 -40 14 -78 25 -82
25 -5 0 19 -34 53 -76 63 -78 103 -104 157 -104 16 0 42 -10 58 -22 26 -21 27
-21 19 -3 -5 11 -9 54 -10 96 0 75 -1 78 -48 147 -73 108 -75 108 -69 2z m76
-29 c36 -54 41 -80 27 -145 l-6 -29 -42 56 c-41 54 -43 59 -43 129 0 82 1 82
64 -11z m-131 -53 c58 -20 71 -30 107 -77 22 -30 40 -55 40 -56 0 -6 -102 15
-117 24 -22 11 -118 131 -106 131 5 0 39 -10 76 -22z"/>
<path d="M2862 6842 c-13 -9 -49 -19 -80 -23 -55 -7 -59 -10 -129 -86 -40 -43
-69 -79 -65 -80 4 -2 43 8 87 22 43 13 81 22 83 20 2 -2 -1 -41 -6 -87 -6 -45
-9 -84 -7 -86 5 -6 125 148 125 160 0 5 -20 -17 -44 -50 -65 -88 -70 -88 -62
-1 7 67 11 79 48 122 22 27 38 50 36 53 -3 2 -22 -18 -44 -45 -34 -43 -48 -52
-109 -70 -38 -12 -74 -21 -78 -21 -14 0 87 111 113 125 14 7 47 14 75 16 l49
4 12 -60 12 -60 -5 56 c-3 34 0 65 7 79 15 28 10 31 -18 12z"/>
<path d="M2329 6785 c-14 -8 -32 -27 -38 -43 -33 -80 73 -149 134 -87 32 31
32 76 3 109 -29 32 -66 40 -99 21z"/>
<path d="M7350 6706 c0 -47 -4 -88 -10 -91 -5 -3 -43 10 -85 29 -41 19 -75 32
-75 28 0 -3 23 -41 52 -85 53 -80 77 -100 139 -111 20 -3 44 -15 54 -26 24
-26 39 -26 24 1 -6 13 -8 36 -4 58 16 86 11 113 -39 199 -27 45 -50 82 -52 82
-2 0 -4 -38 -4 -84z m100 -120 c0 -11 -5 -36 -11 -55 -7 -20 -13 -41 -15 -47
-2 -8 -17 -8 -56 2 -57 15 -102 56 -145 132 l-23 41 72 -34 c64 -29 77 -40
110 -92 21 -32 38 -53 38 -48 0 6 -15 33 -33 60 -31 49 -32 55 -29 135 l4 84
44 -79 c24 -44 44 -89 44 -99z"/>
<path d="M7619 6780 c-9 -5 -22 -23 -29 -40 -35 -86 83 -155 140 -82 27 34 25
77 -5 107 -25 26 -75 33 -106 15z"/>
<path d="M2687 6614 c-17 -14 -41 -24 -60 -24 -49 0 -87 -30 -145 -114 -29
-42 -50 -76 -47 -76 3 0 38 14 77 30 38 17 74 30 79 30 5 0 9 -38 9 -85 0 -47
3 -85 8 -85 12 1 103 151 108 180 3 14 1 45 -5 67 -8 29 -8 49 -1 68 14 37 10
38 -23 9z m3 -44 c6 -10 13 -38 16 -62 5 -37 0 -51 -31 -103 -61 -101 -65
-101 -65 -11 0 74 2 81 36 128 20 27 34 51 32 54 -3 2 -20 -19 -39 -47 -29
-43 -44 -55 -103 -80 -38 -16 -71 -27 -73 -26 -6 6 81 125 101 138 12 7 39 16
61 20 22 3 43 7 47 8 4 0 12 -8 18 -19z"/>
<path d="M7518 6535 c-3 -6 -9 -40 -13 -76 -4 -36 -10 -71 -14 -78 -6 -8 -28
0 -78 29 -38 22 -73 40 -77 40 -3 0 12 -35 33 -79 40 -78 88 -131 119 -131 9
0 1 8 -18 18 -26 12 -45 35 -72 87 -21 39 -38 73 -38 77 0 4 29 -10 65 -31 59
-34 69 -44 95 -100 29 -61 29 -62 7 -56 -21 6 -21 5 -2 -6 11 -6 28 -21 37
-33 17 -21 17 -20 16 25 0 25 5 55 11 67 6 11 11 36 11 55 0 38 -73 207 -82
192z m41 -91 c17 -36 31 -80 31 -97 0 -32 -20 -97 -30 -97 -3 0 -18 25 -33 55
-26 53 -26 58 -16 130 6 41 13 75 14 75 2 0 17 -30 34 -66z"/>
<path d="M2152 6497 c-50 -53 -13 -137 59 -137 47 0 79 34 79 81 0 71 -90 107
-138 56z"/>
<path d="M7782 6513 c-16 -6 -42 -56 -42 -82 0 -11 11 -32 24 -47 46 -54 127
-30 142 43 11 58 -64 110 -124 86z"/>
<path d="M2541 6376 c-13 -13 -39 -27 -58 -31 -20 -3 -47 -13 -60 -22 -23 -15
-118 -172 -109 -181 3 -2 38 14 79 36 l75 41 6 -31 c3 -17 6 -49 7 -72 1 -84
12 -82 58 12 39 79 43 93 36 133 -3 24 -7 65 -8 92 -1 26 -2 47 -3 47 0 0 -11
-11 -23 -24z m-40 -90 c-26 -45 -43 -61 -97 -90 -35 -20 -67 -36 -70 -36 -8 0
56 112 80 138 17 20 105 55 115 46 2 -1 -11 -27 -28 -58z m69 -43 c0 -31 -57
-163 -71 -163 -3 0 -9 33 -12 73 -6 67 -4 76 25 134 l32 61 13 -36 c7 -21 13
-52 13 -69z"/>
<path d="M7635 6200 c-10 -44 -22 -80 -27 -80 -4 0 -36 20 -69 45 -34 25 -64
43 -66 41 -3 -2 8 -39 24 -81 27 -75 69 -135 93 -135 6 0 -2 11 -18 25 -25 21
-101 175 -86 175 2 0 32 -21 66 -46 55 -40 65 -53 85 -107 13 -34 23 -63 23
-65 0 -1 -9 2 -21 8 -11 7 -23 9 -27 6 -3 -3 0 -6 7 -6 7 0 26 -15 43 -32 l30
-33 -6 28 c-4 18 0 44 14 74 11 25 20 60 20 77 0 32 -39 161 -46 153 -2 -2 5
-30 16 -62 11 -32 20 -73 20 -91 0 -34 -28 -104 -41 -104 -4 0 -16 26 -27 58
-18 55 -18 60 -2 127 10 39 21 78 25 88 4 9 3 17 -2 17 -5 0 -18 -36 -28 -80z"/>
<path d="M2045 6228 c-32 -17 -45 -39 -45 -75 0 -70 78 -106 132 -63 32 24 39
59 22 99 -18 44 -68 62 -109 39z"/>
<path d="M7891 6204 c-58 -73 26 -169 108 -124 31 16 46 65 31 100 -15 37 -37
50 -84 50 -25 0 -40 -7 -55 -26z"/>
<path d="M2413 6120 c-12 -14 -39 -32 -61 -38 -21 -7 -46 -20 -55 -29 -17 -20
-91 -183 -85 -189 2 -2 34 17 71 41 36 25 70 45 75 45 5 0 15 -33 22 -72 7
-40 15 -79 18 -86 7 -20 72 154 72 195 0 19 -5 44 -12 56 -7 12 -15 40 -18 63
l-5 41 -22 -27z m-26 -86 c-20 -51 -32 -65 -86 -103 -34 -24 -64 -42 -66 -40
-8 8 49 126 72 151 14 15 39 30 54 33 16 4 32 11 35 16 3 6 8 8 10 6 3 -3 -6
-31 -19 -63z m73 -50 c0 -31 -48 -169 -56 -161 -2 2 -10 34 -18 73 -15 68 -15
70 11 135 l27 67 18 -40 c10 -22 18 -55 18 -74z"/>
<path d="M7750 5958 c-12 -35 -27 -74 -31 -86 -9 -23 -11 -22 -81 40 -40 34
-69 56 -66 48 3 -8 13 -45 23 -83 10 -37 20 -65 22 -63 3 3 -2 29 -11 59 -9
30 -16 58 -16 62 0 3 27 -17 59 -46 50 -44 62 -61 72 -101 6 -27 13 -47 16
-45 2 3 -1 25 -8 51 -10 42 -9 53 17 124 l28 77 18 -75 c9 -41 17 -84 17 -95
1 -28 -55 -121 -62 -104 -4 9 -6 7 -6 -5 -1 -18 -2 -18 -19 -3 -10 10 -23 17
-29 17 -6 0 -25 16 -42 35 -33 37 -42 35 -15 -3 8 -12 33 -31 55 -43 22 -11
45 -31 51 -44 16 -36 28 -31 28 11 0 20 9 48 19 63 32 45 34 74 11 175 -12 53
-23 96 -24 96 -2 0 -14 -28 -26 -62z"/>
<path d="M1925 5915 c-41 -40 -33 -105 17 -131 61 -31 118 6 118 77 0 71 -85
105 -135 54z"/>
<path d="M8024 5930 c-84 -34 -61 -160 29 -160 85 0 113 116 38 155 -34 17
-37 17 -67 5z"/>
<path d="M2318 5860 c-9 -16 -32 -36 -50 -43 -18 -8 -43 -25 -54 -38 -20 -23
-81 -186 -72 -194 2 -3 34 20 71 51 46 38 69 51 72 42 3 -7 16 -47 29 -88 l23
-75 23 75 c34 114 36 143 10 187 -12 20 -25 54 -28 75 l-7 38 -17 -30z m-18
-91 c-17 -56 -27 -72 -68 -105 -88 -73 -84 -74 -57 7 32 92 48 117 90 135 19
7 37 19 40 25 15 24 13 -1 -5 -62z m77 -69 c-3 -19 -13 -62 -22 -95 l-18 -60
-24 75 c-23 73 -23 77 -7 135 9 33 18 63 21 68 2 4 16 -14 30 -40 18 -34 24
-58 20 -83z"/>
<path d="M7824 5665 c-21 -44 -40 -82 -42 -85 -2 -2 -32 27 -68 65 -50 55 -63
65 -59 45 3 -14 12 -61 20 -105 14 -77 16 -82 69 -130 29 -27 57 -59 62 -70 7
-17 9 -14 12 15 2 19 15 50 28 68 41 53 45 78 31 182 l-14 95 -39 -80z m45
-37 c12 -85 6 -112 -34 -159 -28 -34 -30 -32 -39 42 -6 50 -3 64 25 128 17 39
33 70 35 69 1 -2 7 -38 13 -80z m-84 -113 c4 -27 9 -58 12 -69 8 -30 -82 37
-95 71 -10 24 -32 132 -32 154 0 4 24 -18 54 -49 46 -49 55 -64 61 -107z"/>
<path d="M1852 5607 c-50 -53 -13 -137 59 -137 47 0 79 34 79 81 0 71 -90 107
-138 56z"/>
<path d="M8085 5618 c-31 -17 -45 -39 -45 -72 1 -35 15 -57 47 -74 33 -18 59
-14 89 12 73 62 -7 181 -91 134z"/>
<path d="M2251 5592 c-8 -19 -29 -41 -51 -53 -20 -11 -44 -33 -53 -48 -17 -30
-59 -201 -49 -201 4 0 34 28 68 61 l63 62 16 -39 c9 -21 23 -56 32 -76 8 -21
18 -38 22 -38 9 0 31 128 31 178 0 24 -10 51 -27 77 -15 22 -29 56 -33 75 l-5
35 -14 -33z m-12 -98 c-10 -51 -19 -66 -67 -116 -31 -32 -57 -56 -59 -54 -5 5
27 137 38 157 8 16 90 79 96 74 2 -1 -2 -28 -8 -61z m80 -69 c-1 -27 -6 -72
-12 -100 l-12 -50 -30 75 c-16 41 -29 80 -28 85 1 6 7 36 13 68 l12 58 29 -43
c23 -34 28 -54 28 -93z"/>
<path d="M7877 5390 c-20 -36 -40 -71 -45 -78 -6 -9 -24 7 -63 58 -62 83 -65
80 -51 -57 10 -86 11 -89 51 -124 23 -20 47 -51 55 -69 l13 -32 6 32 c4 17 2
40 -3 50 -6 10 -10 41 -10 68 0 40 8 63 39 116 l38 66 7 -31 c17 -87 -2 -177
-43 -199 -12 -6 -21 -16 -21 -22 0 -19 52 35 66 69 14 33 17 149 5 193 -6 23
-10 19 -44 -40z m-83 -70 c18 -26 25 -52 28 -101 l4 -67 -37 30 c-46 37 -56
62 -63 158 l-6 75 25 -30 c14 -16 36 -46 49 -65z"/>
<path d="M2201 5305 c-6 -19 -25 -42 -41 -52 -16 -9 -36 -30 -44 -47 -14 -26
-36 -154 -36 -203 0 -8 25 16 56 54 31 37 59 69 62 70 4 2 25 -31 47 -72 21
-41 41 -72 44 -70 2 3 7 44 12 92 6 64 4 95 -5 118 -14 33 -66 95 -66 78 0 -5
11 -20 25 -33 33 -31 42 -70 35 -160 l-5 -75 -39 69 c-41 73 -42 82 -20 224 8
51 -7 56 -25 7z m2 -92 c-6 -62 -10 -72 -57 -129 -28 -34 -52 -61 -53 -60 -1
1 3 42 11 91 12 87 14 90 57 127 24 21 45 38 46 38 1 0 -1 -30 -4 -67z"/>
<path d="M1815 5295 c-47 -46 -25 -119 42 -139 32 -10 79 18 92 54 28 82 -73
147 -134 85z"/>
<path d="M8125 5308 c-51 -29 -61 -93 -20 -133 64 -65 166 6 130 91 -19 47
-68 66 -110 42z"/>
<path d="M7737 5087 c-8 -99 2 -140 44 -183 17 -18 34 -47 38 -66 l8 -33 15
37 c9 20 32 51 52 70 32 28 38 42 47 99 6 37 9 86 7 108 l-3 42 -53 -71 -54
-72 -45 74 c-25 40 -46 74 -48 76 -1 1 -5 -35 -8 -81z m57 -16 c33 -53 36 -66
36 -132 l0 -73 -35 34 c-19 19 -39 49 -44 66 -8 27 -4 164 5 164 1 0 19 -26
38 -59z m141 -18 c-8 -90 -21 -119 -64 -151 l-31 -23 0 62 c0 57 3 65 47 125
26 35 49 64 51 64 2 0 1 -35 -3 -77z"/>
<path d="M2190 5034 c0 -17 -14 -39 -40 -65 -46 -46 -48 -52 -53 -177 -2 -62
0 -89 7 -82 6 6 9 51 7 105 l-3 94 46 48 46 48 0 -68 c0 -63 -3 -72 -41 -128
-22 -33 -39 -63 -36 -65 2 -2 20 21 41 51 20 30 38 55 40 55 2 0 25 -33 52
-72 l49 -73 3 65 c5 104 -5 146 -45 191 -20 22 -38 37 -41 35 -2 -3 11 -20 31
-38 39 -37 51 -84 45 -171 l-3 -49 -43 62 c-43 60 -44 63 -42 138 3 106 1 122
-10 122 -5 0 -10 -12 -10 -26z"/>
<path d="M1834 5000 c-55 -22 -70 -95 -29 -135 34 -35 78 -33 117 5 25 26 29
36 24 63 -11 55 -64 87 -112 67z"/>
<path d="M8112 4977 c-50 -53 -13 -137 59 -137 70 0 103 77 58 134 -27 35 -86
36 -117 3z"/>
<path d="M7731 4826 c-19 -129 -15 -148 35 -209 14 -16 24 -42 24 -60 l1 -32
19 37 c11 20 34 45 52 56 18 12 39 31 46 42 12 20 42 163 42 200 0 8 -28 -16
-62 -54 l-62 -68 -41 83 -42 83 -12 -78z m84 -126 c-2 -14 -7 -44 -10 -67 l-7
-43 -22 28 c-44 52 -49 70 -41 151 4 42 10 80 13 86 10 16 72 -127 67 -155z
m110 65 c-16 -92 -19 -98 -71 -141 l-45 -36 7 53 c4 30 11 64 15 77 8 21 99
126 105 120 1 -2 -4 -34 -11 -73z"/>
<path d="M2200 4751 c0 -19 -13 -44 -35 -71 -32 -39 -35 -47 -35 -110 0 -37 3
-88 6 -114 l7 -48 38 73 c21 40 42 76 47 81 5 5 31 -18 62 -56 30 -36 55 -66
58 -66 6 0 -9 130 -20 173 -6 26 -26 55 -59 87 -27 26 -49 55 -49 64 0 9 -4
16 -10 16 -5 0 -10 -13 -10 -29z m19 -126 c0 -38 -8 -66 -33 -114 -29 -57 -34
-62 -39 -40 -4 13 -7 55 -7 93 0 63 3 73 33 112 30 39 32 41 39 21 3 -12 6
-44 7 -72z m90 16 c11 -27 33 -163 27 -168 -2 -2 -26 25 -55 59 -37 46 -51 71
-51 94 0 17 -3 46 -6 63 l-7 32 41 -27 c22 -15 45 -38 51 -53z"/>
<path d="M1839 4680 c-29 -17 -43 -66 -29 -100 15 -37 37 -50 84 -50 68 0 101
86 51 135 -25 26 -75 33 -106 15z"/>
<path d="M8089 4661 c-17 -18 -29 -40 -29 -56 0 -35 50 -85 85 -85 35 0 85 50
85 85 0 35 -50 85 -85 85 -16 0 -38 -12 -56 -29z"/>
<path d="M7705 4584 c-3 -20 -4 -39 -1 -42 3 -3 6 4 6 16 0 11 5 24 10 27 6 3
10 1 10 -6 0 -7 2 -10 5 -8 6 7 -6 49 -15 49 -4 0 -11 -16 -15 -36z"/>
<path d="M7894 4559 c-10 -12 -40 -39 -66 -60 l-46 -39 -17 50 c-9 28 -19 50
-21 47 -2 -2 4 -28 14 -58 17 -49 18 -59 5 -108 -8 -29 -12 -60 -9 -68 9 -23
-9 -6 -39 37 -26 37 -27 46 -23 108 4 39 3 57 -2 42 -16 -52 -11 -116 12 -145
12 -16 25 -47 28 -69 l6 -41 18 33 c10 19 32 40 51 48 18 7 42 24 52 38 19 24
70 193 61 202 -3 2 -13 -5 -24 -17z m-5 -76 c-26 -93 -36 -110 -86 -137 -48
-27 -49 -25 -29 49 10 39 25 63 67 103 30 28 57 52 60 52 4 0 -2 -30 -12 -67z"/>
<path d="M2240 4470 c0 -22 -12 -52 -30 -79 -17 -24 -30 -51 -30 -59 0 -38 34
-202 40 -195 4 4 20 41 35 81 16 39 33 72 39 72 6 0 36 -26 68 -57 32 -32 58
-53 58 -48 0 21 -40 177 -50 195 -6 11 -31 31 -55 46 -25 14 -45 29 -45 33 0
4 -7 16 -15 27 -14 18 -14 17 -15 -16z m118 -92 c13 -16 44 -135 40 -154 -2
-10 -21 4 -55 38 -46 46 -55 62 -67 118 -8 36 -14 57 -15 48 -1 -9 4 -40 10
-68 10 -45 8 -57 -17 -120 -15 -38 -30 -67 -34 -65 -4 3 -13 40 -20 84 -13 85
-11 94 37 158 l24 31 43 -28 c24 -16 48 -35 54 -42z"/>
<path d="M1882 4357 c-30 -32 -29 -87 1 -115 51 -48 140 -11 140 58 0 70 -93
108 -141 57z"/>
<path d="M8035 4355 c-41 -40 -33 -105 17 -131 61 -31 118 6 118 77 0 71 -85
105 -135 54z"/>
<path d="M7636 4272 c-34 -102 -34 -121 -6 -185 14 -32 20 -58 15 -75 l-6 -27
25 31 c14 18 43 38 63 47 21 8 45 23 55 33 18 21 90 194 81 194 -4 0 -37 -22
-75 -50 -38 -27 -70 -50 -72 -50 -3 0 -6 6 -9 13 -2 6 -3 4 -1 -7 1 -10 -5
-39 -15 -65 -10 -25 -21 -55 -25 -66 -6 -17 -10 -13 -27 24 -10 24 -19 57 -19
74 0 44 42 170 52 154 6 -9 8 -8 8 3 0 8 -4 21 -8 27 -5 8 -19 -21 -36 -75z
m193 -54 c-41 -105 -49 -117 -106 -147 -30 -17 -53 -25 -50 -18 2 7 12 36 23
66 16 47 28 61 84 103 36 26 66 48 67 48 2 0 -7 -24 -18 -52z"/>
<path d="M7681 4284 c0 -11 3 -14 6 -6 3 7 2 16 -1 19 -3 4 -6 -2 -5 -13z"/>
<path d="M7691 4244 c0 -11 3 -14 6 -6 3 7 2 16 -1 19 -3 4 -6 -2 -5 -13z"/>
<path d="M2310 4198 c0 -20 -11 -58 -25 -85 -26 -49 -27 -61 -3 -146 17 -58
20 -36 4 26 -16 62 -12 90 24 150 25 43 30 46 24 15 -3 -17 -2 -18 3 -6 7 15
11 15 48 -3 22 -11 45 -27 52 -36 16 -21 57 -143 50 -150 -3 -3 -30 15 -60 38
-42 34 -58 54 -67 87 -17 56 -24 48 -9 -9 10 -37 9 -54 -5 -103 -10 -32 -15
-60 -13 -62 2 -3 12 23 21 56 19 67 16 66 86 11 25 -20 53 -42 62 -50 14 -10
12 3 -12 75 -38 111 -50 129 -106 155 -24 12 -51 33 -59 48 l-14 26 -1 -37z"/>
<path d="M7548 4014 c-42 -93 -46 -123 -23 -178 11 -25 13 -49 9 -74 l-7 -37
27 32 c14 17 41 35 59 39 55 12 77 34 123 126 24 48 42 88 38 88 -3 0 -37 -19
-76 -42 -81 -48 -83 -47 -93 54 -4 37 -10 70 -14 72 -3 2 -23 -34 -43 -80z
m51 -23 c12 -79 12 -80 -17 -138 l-30 -58 -16 39 c-23 55 -20 84 15 165 18 39
33 71 34 71 2 0 8 -36 14 -79z m127 -70 c-33 -65 -74 -111 -100 -111 -6 0 -23
-7 -38 -14 l-28 -15 16 37 c30 73 51 97 114 134 36 21 66 38 68 38 1 0 -13
-31 -32 -69z"/>
<path d="M1968 4050 c-25 -26 -29 -36 -24 -63 15 -73 96 -97 142 -43 28 31 30
56 9 95 -26 51 -82 56 -127 11z"/>
<path d="M7974 4070 c-29 -11 -54 -49 -54 -78 0 -32 52 -82 85 -82 34 0 85 50
85 84 0 52 -68 96 -116 76z"/>
<path d="M2403 3935 c4 -20 -1 -48 -16 -83 l-21 -54 21 -61 c12 -34 30 -82 41
-107 l19 -44 18 92 c9 51 19 92 21 92 2 0 35 -21 74 -46 39 -25 73 -44 75 -42
2 1 -16 44 -40 94 -41 89 -72 124 -107 124 -9 0 -34 15 -54 32 l-37 33 6 -30z
m79 -44 c55 -24 70 -41 107 -124 l31 -68 -28 17 c-80 47 -115 81 -138 134 -13
30 -23 51 -24 45 0 -5 10 -33 22 -62 21 -51 21 -55 6 -130 l-15 -78 -22 50
c-41 92 -46 126 -26 170 18 38 34 65 40 65 2 0 23 -8 47 -19z"/>
<path d="M2306 3895 c2 -11 4 -24 4 -28 0 -5 5 -5 10 -2 6 3 10 13 10 21 0 8
-4 13 -9 9 -5 -3 -11 0 -14 7 -2 7 -3 4 -1 -7z"/>
<path d="M7443 3779 c-55 -96 -66 -129 -55 -160 8 -21 9 -19 8 16 0 29 10 59
39 110 l40 70 9 -72 9 -72 -39 -66 c-38 -65 -39 -66 -45 -38 -6 26 -7 26 -8
-9 0 -20 -4 -45 -8 -55 -5 -15 -2 -14 19 5 14 13 43 27 64 33 67 17 83 30 139
116 30 45 55 85 55 87 0 3 -37 -13 -82 -34 -71 -34 -83 -37 -86 -22 -1 9 -6
50 -10 91 l-7 74 -42 -74z m186 -81 c-25 -48 -71 -109 -92 -123 -12 -7 -41
-18 -65 -23 l-43 -10 27 46 c36 63 42 69 110 102 73 35 78 36 63 8z"/>
<path d="M2105 3778 c-31 -17 -45 -39 -45 -74 0 -68 78 -107 131 -65 32 25 40
59 23 100 -18 44 -68 62 -109 39z"/>
<path d="M7832 3757 c-50 -53 -13 -137 59 -137 47 0 79 34 79 81 0 71 -90 107
-138 56z"/>
<path d="M2521 3661 c0 -25 -3 -69 -6 -98 -6 -47 -3 -58 35 -133 24 -44 45
-78 49 -75 3 4 8 40 12 81 3 41 8 77 11 80 3 3 38 -11 77 -30 39 -20 73 -36
77 -36 11 0 -68 135 -99 167 -19 20 -43 34 -68 38 -21 4 -49 17 -63 30 l-24
23 -1 -47z m119 -30 c25 -11 47 -36 77 -86 23 -38 40 -71 39 -73 -2 -1 -35 14
-73 35 -61 32 -74 45 -98 91 -15 29 -30 51 -32 48 -2 -2 9 -28 26 -58 29 -52
30 -57 23 -133 l-7 -80 -39 69 c-33 59 -38 75 -33 115 2 25 10 58 16 74 9 23
15 27 38 21 16 -3 44 -14 63 -23z"/>
<path d="M7297 3528 l-58 -82 3 -71 c1 -38 -1 -80 -5 -93 l-8 -22 37 25 c24
16 51 25 76 25 33 0 45 7 81 44 23 24 57 64 75 89 l32 46 -87 -30 c-48 -16
-87 -29 -88 -29 -1 0 1 41 3 90 3 50 3 90 1 90 -2 0 -30 -37 -62 -82z m49 -30
c-6 -68 -11 -87 -35 -117 -32 -42 -44 -61 -37 -61 2 0 21 22 40 49 32 44 45
52 111 75 82 27 82 27 25 -47 -43 -55 -71 -72 -133 -80 -44 -6 -48 -5 -57 19
-23 58 -13 106 38 176 26 37 49 68 51 68 2 0 1 -37 -3 -82z"/>
<path d="M2229 3481 c-17 -18 -29 -40 -29 -56 0 -35 50 -85 85 -85 35 0 85 50
85 85 0 35 -50 85 -85 85 -16 0 -38 -12 -56 -29z"/>
<path d="M7711 3494 c-80 -34 -52 -154 36 -154 70 0 106 78 63 132 -24 32 -59
39 -99 22z"/>
<path d="M2664 3455 c4 -11 10 -33 13 -49 6 -28 7 -29 14 -7 8 19 14 21 46 16
69 -12 90 -26 137 -91 25 -35 46 -66 46 -68 0 -2 -32 8 -71 23 -64 23 -75 31
-107 79 -19 29 -37 50 -40 48 -2 -3 12 -28 32 -55 36 -49 37 -51 34 -131 l-3
-81 -45 73 c-37 60 -45 81 -44 118 1 36 -1 40 -8 20 -14 -37 -1 -73 58 -162
l54 -83 0 94 c0 106 -10 101 103 57 41 -16 65 -21 61 -14 -18 30 -113 156
-123 162 -5 3 -33 11 -62 16 -29 6 -64 20 -78 33 -23 21 -24 21 -17 2z"/>
<path d="M7136 3305 c-66 -75 -71 -87 -67 -157 2 -20 -5 -50 -13 -67 -19 -37
-18 -37 28 -10 22 13 43 18 56 14 37 -12 85 14 155 85 76 77 74 80 -31 54 -36
-9 -68 -14 -71 -10 -4 3 -1 41 5 83 7 42 10 78 8 80 -2 2 -33 -30 -70 -72z
m49 -31 c-10 -60 -18 -82 -42 -107 -16 -18 -35 -41 -42 -52 -7 -11 7 2 32 28
39 42 53 51 118 67 41 11 78 20 84 20 17 0 -99 -112 -130 -125 -16 -7 -50 -11
-75 -11 l-45 2 -6 45 c-4 28 -2 56 7 77 13 31 92 131 105 132 3 0 0 -34 -6
-76z"/>
<path d="M2395 3215 c-73 -73 35 -181 116 -116 33 27 33 95 0 122 -33 27 -86
25 -116 -6z"/>
<path d="M2835 3210 c12 -23 15 -45 11 -75 -4 -23 -2 -54 4 -69 11 -30 120
-169 127 -162 2 2 -1 41 -7 86 -6 45 -9 84 -7 87 3 2 37 -5 77 -17 39 -12 76
-20 81 -18 5 2 -19 34 -53 72 -61 68 -113 101 -141 90 -12 -4 -46 7 -100 34
-5 2 -1 -10 8 -28z m156 -31 c23 -12 127 -134 108 -127 -8 3 -43 14 -78 23
-52 15 -69 26 -106 69 -25 28 -45 47 -45 42 0 -4 18 -28 40 -53 22 -25 40 -55
41 -67 0 -12 4 -48 8 -80 l7 -59 -43 49 c-61 70 -76 105 -67 162 3 26 8 50 11
54 4 9 102 -2 124 -13z"/>
<path d="M7518 3210 c-25 -26 -29 -36 -24 -63 15 -73 96 -97 142 -43 28 31 30
56 9 95 -26 51 -82 56 -127 11z"/>
<path d="M6957 3105 c-73 -69 -87 -95 -87 -156 0 -22 -7 -51 -16 -64 -19 -29
-16 -30 21 -11 18 9 47 13 79 11 l51 -4 -49 9 c-28 5 -55 7 -60 4 -6 -3 12 17
40 44 49 46 56 49 130 60 43 6 80 9 81 8 2 -2 -29 -28 -68 -59 -39 -32 -66
-57 -60 -57 5 0 45 30 88 67 l78 66 -55 -7 c-30 -4 -72 -10 -92 -13 -45 -7
-45 -6 -19 95 11 39 16 72 13 72 -4 0 -37 -29 -75 -65z m60 23 c-2 -7 -10 -39
-17 -71 -11 -49 -21 -64 -64 -105 l-51 -47 -3 34 c-6 55 6 80 65 142 53 56 81
74 70 47z"/>
<path d="M3021 3014 c7 -9 16 -47 20 -85 l6 -69 74 -78 c41 -43 75 -78 77 -76
3 1 -6 45 -33 160 -5 21 -4 21 68 8 116 -21 117 -20 42 49 -81 75 -108 88
-160 82 -25 -3 -51 0 -69 10 -36 19 -42 19 -25 -1z m184 -41 c41 -29 114 -107
94 -100 -9 3 -42 8 -75 13 -53 6 -64 12 -112 58 l-53 51 58 0 c43 0 66 -6 88
-22z m-41 -146 c9 -38 16 -74 16 -80 0 -16 -99 82 -116 115 -7 14 -13 46 -12
71 l2 44 47 -40 c43 -37 49 -48 63 -110z"/>
<path d="M2613 2990 c-75 -31 -45 -160 37 -160 66 0 105 87 63 139 -21 24 -68
35 -100 21z"/>
<path d="M7360 2993 c-63 -23 -82 -104 -34 -142 56 -44 134 -11 134 58 0 53
-55 100 -100 84z"/>
<path d="M6760 2922 c-79 -61 -100 -89 -100 -137 0 -16 -9 -45 -21 -64 -19
-31 -19 -33 -2 -25 18 8 39 9 121 4 39 -2 54 4 128 55 46 31 84 59 84 62 0 2
-43 1 -95 -3 l-94 -7 30 78 c16 43 28 82 27 86 -2 5 -37 -17 -78 -49z m36 -49
c-22 -57 -34 -74 -75 -103 -27 -19 -48 -37 -46 -39 2 -2 26 12 52 32 44 31 56
35 131 39 45 3 82 4 82 3 0 -1 -31 -23 -68 -48 -71 -49 -113 -57 -182 -38 -22
6 -25 12 -22 47 5 65 21 92 85 139 33 25 62 43 65 40 2 -2 -8 -34 -22 -72z"/>
<path d="M3239 2809 c12 -19 21 -49 21 -67 0 -50 22 -84 98 -145 38 -32 72
-57 75 -57 3 0 -7 39 -23 86 l-30 87 90 -7 c50 -4 90 -6 90 -3 0 2 -35 31 -77
63 l-77 59 -75 1 c-42 0 -84 4 -94 8 -17 8 -17 6 2 -25z m192 -18 c24 -16 58
-41 74 -54 l30 -26 -80 6 c-75 6 -83 8 -128 46 -26 22 -50 37 -53 34 -3 -2 17
-21 45 -41 43 -32 52 -45 72 -104 12 -37 24 -74 27 -82 8 -21 -113 80 -131
110 -8 14 -17 47 -18 75 -4 48 -3 50 26 56 61 13 91 9 136 -20z"/>
<path d="M6542 2759 c-81 -50 -112 -85 -112 -127 0 -11 -11 -35 -24 -55 l-25
-36 30 6 c17 3 55 0 85 -7 l54 -13 86 44 c121 62 124 69 28 69 -44 0 -85 4
-91 8 -10 6 -4 27 22 81 20 41 34 75 32 77 -2 2 -40 -19 -85 -47z m31 -49
c-32 -61 -46 -77 -91 -102 l-53 -30 6 38 c4 22 14 49 22 62 13 22 144 114 151
107 2 -2 -13 -36 -35 -75z m75 -80 c39 0 62 -4 57 -9 -6 -5 -43 -26 -83 -46
l-74 -38 -59 14 -59 14 62 38 c35 20 69 35 76 32 8 -3 43 -5 80 -5z"/>
<path d="M2812 2747 c-50 -53 -13 -137 59 -137 47 0 79 34 79 81 0 71 -90 107
-138 56z"/>
<path d="M7105 2745 c-44 -43 -31 -112 25 -135 35 -15 84 0 100 31 30 55 -10
129 -70 129 -19 0 -40 -9 -55 -25z"/>
<path d="M3550 2669 c-14 -6 -42 -8 -62 -6 l-38 5 19 -24 c10 -13 22 -43 25
-66 4 -24 14 -53 24 -65 18 -22 163 -125 169 -120 2 2 -13 39 -31 83 l-35 79
77 3 c42 2 81 7 85 11 12 12 -134 99 -175 105 -18 3 -44 1 -58 -5z m146 -46
c35 -20 61 -40 58 -45 -3 -4 -35 -8 -72 -8 -61 0 -74 4 -126 37 l-59 37 39 12
c53 17 87 10 160 -33z m-145 -25 c44 -27 57 -42 85 -102 18 -39 31 -72 29 -74
-7 -7 -125 79 -139 101 -14 21 -38 107 -30 107 2 0 27 -14 55 -32z"/>
<path d="M6320 2624 c-89 -41 -115 -65 -131 -113 -6 -20 -23 -48 -37 -63 l-26
-28 41 0 c22 0 57 -7 78 -16 21 -9 49 -13 64 -9 29 6 172 65 184 75 4 3 -33
12 -83 19 -49 7 -90 16 -90 20 0 4 20 39 44 79 25 40 42 72 38 71 -4 0 -41
-16 -82 -35z m21 -55 c-34 -55 -49 -68 -98 -91 -32 -14 -59 -25 -60 -24 -7 6
30 96 43 107 18 15 148 78 152 74 2 -1 -15 -31 -37 -66z m116 -102 c5 -5 -153
-67 -169 -66 -7 0 -33 8 -58 18 l-45 18 59 30 c59 30 59 30 134 17 41 -8 76
-15 79 -17z"/>
<path d="M3055 2545 c-26 -25 -33 -72 -15 -104 16 -31 65 -46 100 -31 37 15
50 37 50 84 0 68 -86 101 -135 51z"/>
<path d="M6882 2560 c-27 -11 -51 -62 -44 -96 17 -90 162 -75 162 16 0 42 -9
59 -41 75 -32 17 -44 18 -77 5z"/>
<path d="M3790 2534 c-22 -10 -49 -13 -75 -10 l-40 6 28 -21 c17 -13 31 -37
38 -65 6 -24 23 -55 37 -69 22 -22 172 -108 178 -102 1 1 -17 37 -42 81 -24
43 -44 79 -44 81 0 1 38 6 85 10 47 4 85 10 85 14 0 11 -172 91 -195 91 -11
-1 -36 -8 -55 -16z m154 -31 l80 -38 -79 -11 c-78 -10 -81 -9 -142 20 l-63 30
43 17 c61 24 72 23 161 -18z m-141 -39 c46 -23 58 -35 90 -95 21 -38 35 -69
30 -69 -24 0 -139 79 -154 105 -17 31 -33 85 -24 85 2 0 28 -12 58 -26z"/>
<path d="M6063 2501 c-82 -30 -107 -50 -134 -105 -22 -46 -13 -66 23 -48 22
11 22 11 -4 6 l-28 -6 16 38 c9 22 23 47 31 56 17 19 151 73 159 65 9 -8 -74
-113 -97 -123 -17 -8 -14 -10 18 -10 21 0 65 -9 98 -19 l60 -18 -69 -24 c-91
-30 -114 -29 -181 7 -52 28 -58 29 -78 15 -21 -14 -20 -15 21 -15 24 0 55 -8
74 -20 44 -27 77 -25 183 9 l89 29 -44 12 c-43 10 -99 26 -128 36 -9 3 1 22
31 61 73 97 74 97 -40 54z"/>
<path d="M4044 2425 c-10 -8 -39 -15 -64 -15 l-45 -1 27 -22 c15 -12 35 -42
46 -67 11 -25 26 -51 33 -57 20 -16 182 -84 187 -78 2 2 -16 33 -42 69 -25 35
-46 69 -46 73 0 5 39 18 88 29 l87 19 -89 33 c-96 35 -151 40 -182 17z m132
-9 c108 -39 107 -37 24 -57 -74 -18 -76 -18 -129 2 -76 28 -76 29 -39 49 41
22 94 24 144 6z m-126 -57 c30 -11 61 -26 69 -32 16 -13 94 -127 87 -127 -3 0
-33 12 -68 27 -63 26 -118 67 -118 87 0 6 -7 23 -14 39 -8 15 -14 27 -13 27 1
0 27 -9 57 -21z"/>
<path d="M5807 2410 c-83 -22 -110 -39 -142 -90 -14 -22 -37 -46 -52 -54 l-28
-15 28 -1 c16 0 54 -14 86 -32 l58 -32 97 18 c53 10 98 21 100 25 3 4 -31 20
-75 35 -43 16 -79 31 -79 35 0 3 25 34 56 69 62 69 60 71 -49 42z m28 -50
c-57 -58 -69 -64 -158 -84 l-28 -7 21 41 c11 22 31 47 45 56 21 14 137 50 170
53 5 1 -17 -26 -50 -59z m24 -98 c82 -32 80 -34 -30 -53 -79 -13 -71 -15 -162
38 -20 11 -19 12 9 18 16 4 43 11 59 15 45 12 45 12 124 -18z"/>
<path d="M3312 2367 c-50 -53 -13 -137 59 -137 47 0 79 34 79 81 0 71 -90 107
-138 56z"/>
<path d="M6608 2370 c-49 -38 -37 -118 21 -138 84 -29 149 71 86 133 -30 30
-73 32 -107 5z"/>
<path d="M4305 2340 c-39 -20 -69 -29 -85 -25 l-25 6 25 -21 c14 -11 30 -18
36 -16 6 3 39 -2 72 -11 54 -13 67 -22 111 -73 28 -32 51 -61 51 -63 0 -11
-153 42 -172 59 -11 10 -26 34 -34 53 -8 19 -16 32 -19 29 -8 -8 22 -62 49
-87 21 -20 206 -86 206 -74 0 3 -27 36 -60 73 l-61 69 86 27 c47 16 82 31 77
35 -7 6 -173 49 -189 49 -4 0 -35 -14 -68 -30z m155 0 c86 -19 87 -24 7 -49
-68 -22 -79 -23 -128 -11 -57 13 -95 29 -71 30 8 0 26 8 40 19 15 10 36 21 47
24 22 5 23 5 105 -13z"/>
<path d="M5549 2345 c-93 -16 -134 -36 -154 -76 -10 -18 -32 -37 -53 -47 -29
-12 -33 -16 -17 -19 53 -10 64 -15 101 -44 l39 -31 100 7 c55 4 103 10 107 14
5 4 -28 25 -72 46 l-81 39 68 63 c37 34 61 62 53 61 -8 0 -49 -6 -91 -13z m21
-52 c-57 -52 -67 -56 -149 -67 l-53 -7 32 41 c17 22 41 45 52 51 22 12 94 26
142 28 27 1 27 0 -24 -46z m9 -102 l74 -38 -63 -6 c-108 -12 -127 -9 -162 22
-18 15 -40 30 -48 33 -8 3 8 9 35 12 28 4 57 9 65 10 8 2 17 4 20 4 3 1 38
-16 79 -37z"/>
<path d="M4630 2313 c-8 -3 -32 -17 -52 -30 -21 -14 -52 -29 -70 -32 l-33 -7
31 -17 c18 -9 41 -32 52 -51 11 -19 33 -41 49 -49 30 -16 192 -52 199 -44 3 2
-25 32 -62 66 l-66 61 81 36 c45 21 79 39 77 41 -4 4 -176 34 -186 32 -3 0
-12 -3 -20 -6z m110 -17 l75 -13 -70 -32 c-62 -29 -76 -32 -124 -26 -57 7
-110 23 -80 24 9 1 23 8 30 18 14 16 66 43 84 42 6 0 44 -6 85 -13z m-119 -81
c39 -6 55 -16 104 -65 l57 -58 -68 14 c-69 14 -134 40 -134 55 0 4 -12 22 -27
40 l-28 32 25 -6 c14 -3 46 -9 71 -12z"/>
<path d="M5232 2300 c-57 -6 -68 -12 -105 -49 -23 -22 -36 -41 -30 -41 6 0 21
13 32 29 11 15 33 33 48 39 30 11 173 25 173 17 0 -3 -28 -25 -62 -50 l-63
-46 -92 2 c-102 2 -124 -4 -68 -20 20 -5 52 -25 70 -44 18 -19 48 -37 65 -41
45 -8 190 -8 190 2 0 4 -34 28 -76 53 l-75 47 70 51 c39 28 71 53 71 56 0 6
-68 4 -148 -5z m68 -153 l65 -42 -60 -3 c-88 -5 -120 4 -171 48 l-45 40 73 0
c69 0 77 -3 138 -43z"/>
<path d="M4910 2289 c-16 -4 -48 -23 -70 -43 -25 -22 -51 -36 -68 -37 -25 0
-24 -2 13 -19 22 -10 52 -34 67 -53 22 -29 38 -37 80 -46 62 -11 168 -21 168
-15 0 2 -29 27 -65 55 -36 28 -65 55 -65 59 0 5 31 26 70 47 38 21 70 41 70
45 0 9 -163 15 -200 7z m170 -14 c0 -2 -29 -20 -63 -40 -55 -30 -73 -35 -130
-35 -37 0 -67 3 -67 7 0 3 17 21 38 40 36 32 39 33 130 33 50 0 92 -2 92 -5z
m-72 -136 l67 -52 -76 6 c-87 6 -124 22 -157 66 l-23 31 61 0 c58 0 64 -3 128
-51z"/>
<path d="M3602 2233 c-23 -9 -44 -63 -37 -94 14 -62 101 -83 143 -34 46 54 10
136 -60 134 -18 0 -39 -3 -46 -6z"/>
<path d="M6325 2215 c-52 -51 -14 -139 59 -139 49 0 80 31 80 80 0 73 -88 111
-139 59z"/>
<path d="M3878 2090 c-25 -26 -29 -36 -24 -63 15 -73 96 -97 142 -43 26 30 30
56 12 89 -29 56 -84 63 -130 17z"/>
<path d="M6055 2108 c-53 -31 -60 -85 -16 -129 36 -35 70 -37 107 -5 73 63 -8
182 -91 134z"/>
<path d="M4205 2020 c-29 -11 -44 -32 -51 -68 -5 -26 -1 -36 24 -62 32 -32 56
-37 95 -19 52 24 60 87 18 130 -30 30 -50 34 -86 19z"/>
<path d="M5764 2020 c-55 -22 -70 -95 -29 -135 31 -32 75 -32 111 -1 69 59 1
171 -82 136z"/>
<path d="M4513 1960 c-81 -32 -58 -160 28 -160 41 0 58 10 75 42 36 69 -31
146 -103 118z"/>
<path d="M5463 1962 c-37 -6 -66 -51 -59 -92 14 -90 139 -95 162 -6 13 53 -45
108 -103 98z"/>
<path d="M4809 1920 c-29 -17 -43 -66 -29 -100 23 -56 92 -69 135 -25 51 50
17 135 -53 135 -20 0 -44 -5 -53 -10z"/>
<path d="M5111 1904 c-44 -56 -11 -134 58 -134 47 0 84 36 84 80 0 73 -98 110
-142 54z"/>
<path d="M17705 8594 c-89 -23 -151 -68 -188 -139 -15 -30 -22 -64 -25 -132
l-4 -93 -69 0 -69 0 0 -100 0 -100 70 0 70 0 0 -395 0 -395 115 0 115 0 0 395
0 395 110 0 111 0 -3 98 -3 97 -108 3 -109 3 7 42 c14 86 67 124 162 114 l53
-6 0 99 c0 84 -3 99 -17 105 -22 9 -191 16 -218 9z"/>
<path d="M12074 8577 c-3 -8 -4 -275 -2 -594 l3 -579 30 -59 c26 -50 39 -64
85 -88 51 -27 62 -29 140 -25 47 2 91 7 98 12 8 5 12 38 12 105 l0 99 -44 -5
c-35 -4 -48 -1 -65 16 -21 21 -21 24 -21 576 l0 555 -115 0 c-87 0 -117 -3
-121 -13z"/>
<path d="M12572 7988 c3 -566 4 -605 22 -638 48 -92 119 -125 245 -118 43 2
83 8 89 12 8 5 12 40 12 105 l0 98 -48 -5 c-87 -8 -81 -45 -84 589 l-3 554
-118 3 -118 3 3 -603z"/>
<path d="M10380 8546 c-161 -45 -272 -152 -332 -321 -46 -129 -64 -289 -48
-440 37 -361 201 -545 500 -562 76 -4 113 -1 183 16 77 18 197 67 220 90 7 7
-76 201 -86 201 -3 0 -24 -11 -49 -25 -104 -58 -251 -69 -336 -26 -119 61
-174 186 -176 401 0 63 5 145 13 181 25 127 107 233 199 259 87 24 211 5 300
-47 24 -14 45 -23 46 -21 11 16 88 199 85 202 -20 18 -146 71 -207 87 -87 22
-241 24 -312 5z"/>
<path d="M11337 8239 c-61 -14 -136 -58 -182 -105 -86 -88 -126 -216 -126
-399 0 -183 40 -311 125 -399 123 -126 348 -153 519 -63 139 73 210 228 211
457 0 130 -14 208 -54 295 -67 149 -198 226 -380 224 -41 -1 -92 -5 -113 -10z
m204 -222 c76 -51 103 -125 103 -282 0 -157 -27 -231 -103 -282 -44 -30 -122
-31 -168 -3 -73 44 -105 132 -105 286 -1 203 62 304 188 304 37 0 61 -6 85
-23z"/>
<path d="M13318 8231 c-149 -48 -235 -153 -272 -334 -31 -148 -14 -340 40
-453 103 -218 393 -288 665 -163 79 37 78 27 23 147 l-33 73 -59 -30 c-118
-59 -249 -61 -322 -3 -35 28 -73 92 -86 144 l-6 28 293 2 294 3 3 100 c7 248
-93 432 -265 485 -82 25 -197 26 -275 1z m223 -204 c40 -26 75 -93 85 -159 l6
-48 -182 0 -182 0 7 33 c11 52 45 123 68 145 60 56 140 68 198 29z"/>
<path d="M14260 8241 c-51 -16 -87 -40 -127 -84 -85 -92 -123 -207 -130 -393
-9 -222 23 -342 116 -435 64 -63 118 -84 216 -84 84 1 158 29 211 79 l44 43 0
-63 c0 -76 -11 -109 -52 -151 -72 -74 -223 -79 -351 -11 -31 17 -59 29 -60 27
-11 -14 -77 -163 -77 -174 0 -15 116 -69 195 -90 90 -24 253 -22 338 5 126 39
213 137 237 269 6 31 10 263 10 552 l0 499 -115 0 -115 0 0 -57 0 -57 -42 41
c-63 60 -120 86 -203 89 -38 2 -81 0 -95 -5z m233 -217 c18 -9 47 -30 65 -47
l32 -31 0 -202 0 -202 -31 -26 c-50 -43 -90 -59 -146 -60 -59 0 -93 19 -130
74 -33 48 -43 94 -43 200 0 198 64 310 178 310 24 0 57 -7 75 -16z"/>
<path d="M15327 8240 c-146 -37 -252 -154 -292 -322 -19 -83 -19 -283 0 -366
50 -213 205 -332 430 -332 113 0 246 35 322 85 l21 14 -38 88 c-22 49 -43 88
-47 87 -4 0 -34 -12 -65 -27 -138 -67 -279 -52 -347 35 -22 27 -51 99 -51 124
0 12 51 14 290 14 l289 0 7 37 c11 58 -3 212 -27 288 -40 129 -100 204 -203
251 -49 22 -77 28 -155 30 -53 2 -113 -1 -134 -6z m201 -210 c37 -23 76 -98
86 -167 l6 -43 -180 0 c-206 0 -197 -5 -160 93 21 55 67 109 110 126 42 16
103 12 138 -9z"/>
<path d="M16680 8236 c-117 -34 -193 -98 -245 -207 -45 -94 -59 -184 -52 -339
7 -171 44 -275 128 -359 73 -73 177 -111 299 -111 161 0 291 72 357 197 51 95
67 171 67 318 0 93 -5 148 -18 195 -39 144 -123 248 -234 291 -71 27 -234 35
-302 15z m207 -212 c115 -55 153 -377 60 -515 -35 -52 -82 -79 -139 -79 -80 0
-133 41 -169 130 -20 49 -19 302 0 350 37 89 88 130 164 130 27 0 65 -7 84
-16z"/>
<path d="M12965 6856 c-112 -51 -119 -219 -10 -270 102 -49 209 21 209 136 0
101 -110 176 -199 134z"/>
<path d="M22360 6859 c-118 -47 -129 -219 -16 -273 99 -47 208 19 208 127 0
52 -13 86 -43 114 -44 40 -99 52 -149 32z"/>
<path d="M25290 6852 c-19 -9 -45 -33 -58 -52 -20 -29 -23 -44 -20 -93 4 -51
9 -63 40 -94 29 -29 45 -37 85 -40 66 -6 111 19 141 77 28 55 28 82 1 138 -35
72 -118 100 -189 64z"/>
<path d="M14320 6267 c0 -651 -1 -643 68 -710 27 -26 54 -41 101 -52 59 -16
80 -15 164 1 l27 6 0 99 0 99 -49 0 c-33 0 -53 5 -62 17 -11 13 -15 118 -17
570 l-3 553 -114 0 -115 0 0 -583z"/>
<path d="M10255 6817 c-191 -50 -286 -202 -254 -407 24 -156 108 -248 324
-354 207 -102 272 -175 229 -255 -27 -49 -73 -73 -154 -79 -92 -6 -183 12
-275 57 -88 43 -74 52 -131 -81 -24 -57 -31 -84 -24 -93 19 -23 137 -75 216
-95 96 -25 256 -27 353 -4 181 41 281 169 281 360 0 192 -89 302 -347 430 -86
42 -151 81 -179 108 -39 38 -44 47 -44 88 0 72 51 108 153 108 78 0 153 -21
235 -66 l62 -35 19 43 c10 24 30 70 45 102 14 33 25 60 24 61 -29 26 -121 71
-183 91 -97 31 -270 41 -350 21z"/>
<path d="M15610 6823 c-42 -6 -143 -45 -180 -68 -58 -37 -139 -131 -170 -197
-59 -125 -73 -205 -73 -398 0 -148 3 -187 21 -255 61 -223 177 -352 362 -400
137 -36 359 -4 484 69 l45 26 -47 100 c-25 55 -48 99 -51 97 -3 -1 -37 -18
-76 -37 -66 -33 -76 -35 -170 -35 -84 0 -107 4 -141 22 -123 66 -182 222 -171
453 11 237 86 360 240 392 73 15 167 1 245 -39 31 -15 60 -29 64 -31 4 -2 24
32 44 75 62 136 65 118 -29 164 -45 21 -113 46 -152 54 -65 14 -186 18 -245 8z"/>
<path d="M24650 6605 l0 -105 -70 0 -70 0 0 -105 0 -105 70 0 70 0 0 -288 c0
-233 3 -299 16 -341 20 -70 81 -132 149 -152 53 -15 170 -16 220 -1 l30 8 3
97 3 97 -63 0 c-116 1 -118 7 -118 324 l0 255 88 3 87 3 0 100 0 100 -87 3
-87 3 -3 102 -3 102 -117 3 -118 3 0 -106z"/>
<path d="M11285 6506 c-80 -19 -139 -53 -190 -107 -94 -100 -130 -229 -123
-433 4 -99 11 -147 27 -196 47 -138 129 -222 254 -261 97 -30 247 -24 329 14
164 74 242 229 242 477 1 137 -11 200 -54 297 -77 170 -281 259 -485 209z
m172 -207 c68 -26 108 -93 125 -209 23 -158 -16 -317 -92 -367 -39 -27 -125
-31 -169 -8 -83 42 -115 132 -110 309 4 111 7 126 34 181 45 90 127 126 212
94z"/>
<path d="M12291 6504 c-206 -55 -305 -220 -305 -504 1 -245 80 -405 237 -476
80 -36 218 -45 318 -20 73 19 189 70 189 84 0 10 -68 164 -76 171 -2 2 -30 -9
-61 -25 -46 -23 -74 -30 -134 -32 -116 -6 -177 33 -214 137 -34 98 -27 279 15
361 57 112 192 141 330 71 35 -18 64 -31 65 -29 6 7 75 170 75 177 0 14 -136
71 -206 86 -86 18 -163 18 -233 -1z"/>
<path d="M13608 6510 c-101 -18 -248 -79 -248 -102 0 -9 53 -132 75 -175 1 -2
33 13 71 33 132 67 283 55 334 -28 26 -43 29 -134 4 -124 -46 18 -159 26 -222
16 -134 -22 -214 -75 -264 -178 -30 -60 -33 -75 -33 -157 0 -76 4 -99 26 -145
29 -62 74 -110 128 -137 27 -14 60 -18 131 -18 87 0 100 3 148 30 30 16 66 43
80 60 l27 31 20 -61 c11 -33 25 -60 30 -59 6 1 59 12 118 25 87 18 107 26 103
39 -2 8 -12 33 -20 55 -12 32 -15 95 -16 325 0 291 -6 344 -43 416 -25 49 -99
110 -163 134 -66 25 -207 35 -286 20z m227 -576 c24 -6 25 -9 25 -85 0 -77 0
-78 -35 -105 -92 -70 -221 -69 -254 2 -26 59 -5 150 42 175 50 28 143 33 222
13z"/>
<path d="M16540 6509 c-114 -22 -212 -97 -265 -200 -77 -150 -83 -401 -15
-582 31 -81 111 -166 192 -202 52 -23 81 -29 164 -33 164 -7 275 38 356 144
63 84 89 175 95 330 8 204 -28 333 -123 434 -92 98 -246 140 -404 109z m185
-222 c29 -16 48 -38 70 -81 27 -54 30 -70 34 -171 5 -177 -21 -260 -98 -312
-47 -32 -135 -32 -181 0 -124 83 -136 434 -18 544 51 48 129 56 193 20z"/>
<path d="M17658 6507 c-58 -17 -122 -58 -145 -94 l-18 -27 -5 54 -5 55 -110 0
-110 0 -3 -492 -2 -493 120 0 120 0 0 355 0 356 28 25 c88 82 202 79 244 -6
16 -31 18 -72 18 -382 l0 -348 120 0 120 0 0 355 0 356 28 25 c88 82 202 79
244 -6 16 -31 18 -72 18 -382 l0 -348 120 0 120 0 0 357 c0 397 -6 455 -53
535 -26 42 -44 59 -91 83 -51 26 -71 30 -135 30 -104 0 -171 -25 -234 -86 -28
-27 -52 -49 -53 -49 -1 0 -13 18 -27 39 -52 78 -197 119 -309 88z"/>
<path d="M19177 6510 c-56 -15 -94 -37 -138 -82 l-39 -40 0 56 0 57 -112 -3
-113 -3 -3 -492 -2 -493 120 0 120 0 0 353 0 353 33 31 c39 37 60 48 109 57
50 9 102 -14 128 -56 19 -31 20 -50 20 -385 l0 -353 120 0 120 0 0 353 0 353
33 31 c39 37 60 48 109 57 50 9 102 -14 128 -56 19 -31 20 -50 20 -385 l0
-353 121 0 120 0 -3 398 c-3 359 -5 402 -22 446 -58 152 -244 208 -413 126
-34 -17 -75 -47 -93 -66 -17 -20 -32 -35 -34 -33 -35 55 -67 85 -114 106 -60
28 -154 38 -215 23z"/>
<path d="M21692 6504 c-68 -18 -85 -28 -138 -76 l-44 -41 0 57 0 57 -112 -3
-113 -3 -3 -492 -2 -493 120 0 120 0 0 349 0 349 46 41 c87 76 197 76 244 -1
19 -31 20 -50 20 -385 l0 -353 120 0 120 0 0 378 c0 409 -4 445 -56 521 -32
47 -94 87 -155 100 -64 14 -102 13 -167 -5z"/>
<path d="M23035 6506 c-118 -29 -197 -92 -250 -199 -97 -198 -83 -498 31 -664
112 -163 359 -201 592 -93 34 16 62 31 62 34 0 6 -71 169 -76 175 -2 2 -36
-11 -74 -28 -65 -30 -78 -33 -149 -30 -67 4 -83 8 -115 33 -58 44 -87 116 -93
234 -9 156 26 258 105 313 30 20 48 24 111 24 65 0 86 -5 144 -32 l68 -32 40
85 c21 47 39 89 39 94 0 13 -142 72 -210 86 -79 17 -158 17 -225 0z"/>
<path d="M23878 6510 c-99 -18 -248 -79 -248 -101 0 -6 18 -49 39 -95 l39 -83
69 35 c131 67 282 55 333 -28 26 -43 29 -134 4 -124 -46 18 -159 26 -222 16
-134 -22 -214 -75 -264 -178 -30 -61 -33 -75 -33 -157 1 -109 26 -175 89 -233
62 -57 119 -76 213 -70 91 6 162 36 211 92 l30 35 12 -49 c20 -81 19 -81 145
-53 61 14 112 27 114 29 3 2 -4 21 -15 42 -17 33 -19 68 -24 362 -5 314 -6
327 -29 377 -31 69 -102 134 -177 162 -66 26 -207 36 -286 21z m229 -576 c22
-6 23 -11 23 -85 0 -77 0 -78 -35 -105 -92 -70 -221 -69 -254 2 -14 32 -14 96
1 128 29 64 144 90 265 60z"/>
<path d="M25992 6509 c-213 -42 -326 -220 -326 -509 1 -195 47 -326 146 -415
78 -70 140 -90 283 -90 150 0 209 21 289 99 96 94 136 214 137 408 0 134 -17
221 -60 306 -30 60 -105 138 -159 166 -76 39 -212 55 -310 35z m201 -232 c70
-53 104 -193 87 -349 -11 -96 -35 -153 -84 -195 -33 -30 -43 -33 -98 -33 -110
0 -166 63 -189 212 -28 180 24 347 121 387 43 19 124 8 163 -22z"/>
<path d="M27127 6510 c-55 -14 -93 -36 -143 -82 l-44 -41 0 57 0 57 -112 -3
-113 -3 -3 -492 -2 -493 120 0 120 0 0 351 0 351 32 30 c17 16 45 36 62 45 43
22 126 22 160 -1 53 -34 56 -55 56 -431 l0 -345 121 0 120 0 -3 393 c-3 379
-4 394 -25 447 -26 64 -81 122 -137 145 -47 20 -158 28 -209 15z"/>
<path d="M12907 6494 c-4 -4 -7 -227 -7 -496 l0 -488 120 0 120 0 -2 493 -3
492 -111 3 c-60 1 -113 -1 -117 -4z"/>
<path d="M20280 6112 c0 -449 2 -463 77 -543 59 -63 117 -83 222 -77 89 5 150
29 205 81 21 21 40 37 42 37 2 0 4 -9 4 -20 0 -11 7 -38 16 -60 12 -29 21 -39
33 -36 9 3 59 15 111 27 52 12 98 23 102 25 3 2 -1 19 -10 37 -15 28 -18 87
-22 472 l-5 440 -117 3 -118 3 0 -354 0 -353 -32 -32 c-68 -65 -172 -82 -226
-37 -47 40 -52 80 -52 444 l0 331 -115 0 -115 0 0 -388z"/>
<path d="M22297 6494 c-4 -4 -7 -227 -7 -496 l0 -488 120 0 120 0 -2 493 -3
492 -111 3 c-60 1 -113 -1 -117 -4z"/>
<path d="M25237 6493 c-4 -3 -7 -226 -7 -495 l0 -488 120 0 120 0 0 495 0 495
-113 0 c-63 0 -117 -3 -120 -7z"/>
<path d="M16050 5128 c-94 -26 -137 -142 -83 -226 36 -57 130 -79 194 -47 91
48 93 212 2 258 -42 21 -74 26 -113 15z"/>
<path d="M9977 5074 c-4 -4 -7 -297 -7 -651 l0 -643 130 0 130 0 -2 648 -3
647 -121 3 c-66 1 -123 -1 -127 -4z"/>
<path d="M15390 4870 l0 -110 -75 0 -76 0 3 -97 3 -98 73 -3 72 -3 0 -298 c0
-316 4 -346 50 -411 11 -16 46 -41 78 -57 49 -24 69 -28 142 -28 47 0 97 4
113 8 l27 7 0 101 0 100 -47 -6 c-60 -7 -92 8 -115 55 -16 31 -18 67 -18 283
l0 247 90 0 90 0 0 100 0 100 -90 0 -90 0 0 110 0 110 -115 0 -115 0 0 -110z"/>
<path d="M10922 4778 c-64 -10 -120 -37 -172 -85 l-40 -35 0 51 0 51 -115 0
-115 0 0 -490 0 -490 120 0 120 0 0 348 0 348 33 31 c46 44 89 63 142 63 60 0
98 -21 119 -64 14 -29 16 -80 16 -380 l0 -346 121 0 120 0 -3 393 c-3 346 -6
397 -21 438 -49 128 -171 191 -325 167z"/>
<path d="M11928 4778 c-67 -9 -124 -35 -178 -85 l-40 -35 0 51 0 51 -115 0
-115 0 0 -490 0 -490 120 0 120 0 0 348 0 348 33 32 c87 84 220 83 261 -2 14
-29 16 -80 16 -380 l0 -346 121 0 120 0 -3 393 c-3 379 -4 394 -26 448 -48
121 -161 177 -314 157z"/>
<path d="M12807 4779 c-93 -14 -170 -54 -231 -120 -87 -93 -121 -205 -120
-394 1 -301 121 -471 358 -506 180 -27 353 50 429 190 87 160 91 467 7 631
-76 149 -251 228 -443 199z m170 -230 c20 -12 43 -42 60 -77 27 -55 28 -63 28
-203 0 -142 -1 -147 -30 -205 -39 -76 -93 -108 -169 -100 -68 8 -114 46 -145
122 -21 51 -25 75 -25 179 -1 134 15 198 62 254 52 61 147 74 219 30z"/>
<path d="M14675 4784 c-118 -15 -278 -66 -303 -97 -7 -8 3 -39 29 -96 22 -47
41 -86 43 -88 1 -2 29 10 62 27 142 73 299 59 344 -31 11 -21 20 -57 20 -80 0
-38 -2 -41 -22 -35 -49 15 -206 18 -259 6 -173 -40 -270 -175 -257 -357 12
-171 118 -276 278 -277 93 -1 163 26 222 85 33 33 48 43 48 31 0 -22 18 -83
28 -100 7 -10 31 -8 122 13 63 14 115 27 117 29 3 2 -4 19 -14 38 -16 29 -19
69 -24 353 -6 345 -8 362 -65 448 -58 88 -228 148 -369 131z m183 -587 c8 -6
12 -34 12 -82 0 -72 -1 -75 -33 -99 -73 -55 -177 -74 -226 -40 -26 18 -51 71
-51 106 0 37 34 90 71 110 28 16 50 19 124 16 50 -2 96 -7 103 -11z"/>
<path d="M16760 4779 c-249 -37 -376 -236 -357 -562 10 -161 51 -272 133 -354
86 -85 230 -126 367 -104 228 38 341 186 354 467 14 282 -83 473 -270 533 -76
24 -155 31 -227 20z m156 -224 c39 -25 73 -79 89 -140 22 -85 20 -228 -5 -308
-57 -183 -253 -198 -331 -25 -22 48 -24 67 -24 188 0 119 3 141 23 185 29 63
47 83 97 107 45 21 113 18 151 -7z"/>
<path d="M17895 4780 c-71 -10 -117 -32 -169 -81 l-46 -42 0 52 0 51 -115 0
-115 0 0 -490 0 -490 120 0 120 0 0 354 0 355 33 24 c55 42 94 57 146 57 61 0
105 -33 121 -88 6 -22 10 -174 10 -369 l0 -333 120 0 120 0 0 343 c0 369 -7
443 -46 525 -49 101 -161 151 -299 132z"/>
<path d="M13400 4752 c0 -7 155 -543 261 -904 l20 -68 134 0 133 0 11 33 c25
76 271 928 271 937 0 6 -49 10 -120 10 -66 0 -120 -3 -120 -6 0 -8 -160 -626
-167 -644 -8 -21 -4 -31 -98 330 l-82 315 -122 3 c-66 1 -121 -1 -121 -6z"/>
<path d="M15970 4270 l0 -490 120 0 120 0 0 490 0 490 -120 0 -120 0 0 -490z"/>
<path d="M10107 3096 c-55 -15 -94 -47 -113 -93 -18 -41 -18 -134 -1 -176 20
-46 85 -101 177 -147 44 -22 87 -51 96 -64 57 -88 -81 -136 -212 -75 -25 12
-46 20 -48 18 -9 -10 -46 -90 -46 -99 0 -22 112 -63 186 -68 163 -10 250 45
269 169 16 107 -44 192 -187 262 -75 37 -118 75 -118 103 0 8 9 23 20 34 29
29 101 26 168 -5 l53 -25 24 52 c29 62 25 69 -52 98 -72 27 -156 33 -216 16z"/>
<path d="M17797 3099 c-126 -30 -193 -133 -204 -315 -14 -234 75 -378 242
-392 85 -6 145 11 199 59 96 85 130 279 80 458 -30 105 -84 161 -181 186 -63
17 -80 17 -136 4z m118 -131 c98 -44 113 -329 23 -425 -52 -56 -141 -33 -180
45 -20 41 -23 62 -23 162 0 99 3 121 23 157 12 23 32 49 44 57 27 19 77 21
113 4z"/>
<path d="M22333 3101 c-90 -23 -143 -92 -143 -186 1 -98 47 -160 166 -219 129
-63 165 -115 113 -162 -31 -28 -139 -25 -196 4 -23 12 -46 22 -52 22 -7 0 -17
-19 -48 -98 -10 -24 104 -65 193 -70 167 -9 264 65 264 200 -1 95 -63 169
-199 238 -107 53 -132 89 -91 130 30 30 108 27 172 -5 28 -14 52 -24 53 -23 1
2 12 25 24 52 26 59 21 67 -56 96 -63 23 -153 33 -200 21z"/>
<path d="M10530 2745 l0 -345 70 0 70 0 0 125 0 125 30 0 c20 0 33 -6 36 -17
25 -79 53 -130 89 -168 46 -47 123 -92 134 -78 27 31 71 92 71 97 0 4 -16 14
-35 21 -52 22 -101 70 -120 118 -16 39 -16 42 0 52 75 44 114 109 115 190 0
102 -38 172 -115 206 -33 15 -66 19 -192 19 l-153 0 0 -345z m294 199 c38 -39
37 -105 -3 -145 -26 -26 -36 -29 -90 -29 l-61 0 0 100 0 100 64 0 c55 0 67 -3
90 -26z"/>
<path d="M11130 2745 l0 -345 65 0 65 0 0 345 0 345 -65 0 -65 0 0 -345z"/>
<path d="M11420 2745 l0 -345 65 0 65 0 2 214 3 214 92 -212 92 -211 75 -3 76
-3 0 346 0 345 -66 0 -65 0 3 -215 c2 -118 0 -211 -3 -207 -3 4 -46 100 -95
214 l-89 208 -77 0 -78 0 0 -345z"/>
<path d="M12085 2758 c-48 -183 -90 -339 -93 -345 -3 -10 15 -13 71 -13 l74 0
13 60 13 60 92 0 93 0 14 -57 14 -58 73 -3 c57 -2 72 0 69 10 -3 7 -44 163
-93 346 l-88 332 -82 0 -81 0 -89 -332z m200 24 c14 -68 28 -129 32 -137 4
-12 -7 -15 -62 -15 -56 0 -66 3 -61 15 3 9 18 72 33 140 15 68 28 123 30 122
1 -2 14 -58 28 -125z"/>
<path d="M12620 2745 l0 -345 71 0 71 0 -4 149 c-1 82 -2 148 0 147 1 -2 46
-68 100 -147 l97 -144 79 -3 c64 -2 78 0 73 11 -3 8 -56 87 -117 176 -62 89
-110 167 -107 175 3 7 53 84 112 170 l106 156 -78 0 -78 0 -95 -144 -95 -144
3 144 4 144 -71 0 -71 0 0 -345z"/>
<path d="M13210 2745 l0 -345 65 0 65 0 0 145 0 145 105 0 105 0 0 -145 0
-145 70 0 70 0 0 345 0 345 -70 0 -70 0 0 -140 0 -140 -105 0 -105 0 0 140 0
140 -65 0 -65 0 0 -345z"/>
<path d="M13966 3073 c-13 -46 -176 -661 -176 -666 0 -4 31 -7 70 -7 l69 0 11
43 c22 85 12 78 113 75 l92 -3 15 -57 14 -58 72 0 72 0 -29 108 c-16 59 -57
214 -92 344 l-62 238 -82 0 c-69 0 -82 -3 -87 -17z m142 -405 l10 -38 -65 0
-65 0 7 28 c4 15 15 68 26 117 11 50 22 101 25 115 5 18 13 -3 29 -80 12 -58
27 -122 33 -142z"/>
<path d="M14410 2745 l0 -345 70 0 70 0 0 126 0 125 32 -3 c28 -3 33 -8 49
-56 29 -85 90 -156 166 -196 18 -9 34 -16 37 -16 6 0 76 96 76 104 0 3 -22 17
-49 31 -52 26 -92 69 -111 120 -10 26 -9 31 6 40 45 26 92 77 102 113 26 86 9
186 -41 241 -46 50 -89 61 -254 61 l-153 0 0 -345z m295 200 c37 -37 35 -106
-4 -146 -26 -26 -36 -29 -90 -29 l-61 0 0 100 0 100 65 0 c57 0 69 -3 90 -25z"/>
<path d="M15010 2745 l0 -345 65 0 65 0 0 345 0 345 -65 0 -65 0 0 -345z"/>
<path d="M15300 2745 l0 -345 65 0 65 0 2 215 3 216 48 -111 c26 -61 68 -158
93 -215 l46 -105 74 0 74 0 0 345 0 345 -66 0 -66 0 4 -215 c2 -118 0 -209 -4
-202 -4 6 -47 103 -95 215 l-88 202 -77 0 -78 0 0 -345z"/>
<path d="M15872 3073 c3 -10 36 -165 73 -345 l69 -328 81 0 81 0 33 173 c19
94 37 186 41 202 8 28 8 28 9 5 1 -14 17 -104 36 -200 19 -96 35 -176 35 -178
0 -2 37 -2 83 0 l82 3 27 130 c15 72 47 226 71 343 l45 212 -72 0 -73 0 -31
-172 c-18 -95 -35 -194 -38 -221 -4 -26 -9 -46 -11 -43 -2 2 -23 100 -46 218
l-43 213 -71 3 -71 3 -43 -226 -44 -225 -40 223 -40 222 -74 3 c-67 3 -73 1
-69 -15z"/>
<path d="M16740 2745 l0 -345 65 0 65 0 0 345 0 345 -65 0 -65 0 0 -345z"/>
<path d="M17030 2745 l0 -345 70 0 70 0 0 125 0 125 29 0 c26 0 31 -5 46 -49
32 -96 87 -162 174 -206 34 -17 34 -17 57 12 12 15 30 40 39 55 16 27 15 28
-17 41 -48 20 -96 64 -118 108 -26 50 -25 66 4 73 13 3 38 21 54 41 97 110 49
317 -83 354 -22 6 -104 11 -182 11 l-143 0 0 -345z m291 196 c38 -38 40 -97 5
-137 -20 -24 -32 -28 -90 -32 l-66 -4 0 101 0 101 61 0 c54 0 64 -3 90 -29z"/>
<path d="M18182 3033 l3 -58 83 -3 82 -3 0 -284 0 -285 70 0 70 0 0 285 0 284
78 3 77 3 3 58 3 57 -236 0 -236 0 3 -57z"/>
<path d="M18972 2813 c3 -321 7 -334 92 -387 93 -58 255 -44 325 28 54 56 61
99 61 383 l0 253 -70 0 -70 0 0 -250 c0 -278 -4 -297 -60 -320 -43 -18 -97 -3
-124 33 -20 27 -21 43 -24 283 l-3 254 -65 0 -65 0 3 -277z"/>
<path d="M19600 2745 l0 -345 65 0 65 0 2 215 3 215 94 -215 93 -215 74 0 74
0 0 345 0 345 -66 0 -67 0 5 -215 c2 -118 4 -215 2 -215 -1 0 -44 97 -95 215
l-94 215 -77 0 -78 0 0 -345z"/>
<path d="M20230 2745 l0 -345 70 0 70 0 0 345 0 345 -70 0 -70 0 0 -345z"/>
<path d="M20470 3087 c0 -1 41 -155 90 -341 50 -187 90 -341 90 -343 0 -2 37
-3 82 -1 l82 3 91 343 92 342 -73 0 -72 0 -41 -167 c-23 -93 -49 -208 -59
-258 l-19 -90 -12 60 c-7 33 -34 148 -59 255 l-47 195 -73 3 c-39 2 -72 1 -72
-1z"/>
<path d="M21090 2745 l0 -345 205 0 205 0 0 60 0 60 -135 0 -135 0 0 85 0 84
118 3 117 3 3 58 3 57 -121 0 -120 0 0 80 0 80 130 0 130 0 0 60 0 60 -200 0
-200 0 0 -345z"/>
<path d="M21630 2745 l0 -345 65 0 65 0 0 125 0 125 33 0 c30 0 33 -3 51 -60
21 -69 77 -138 145 -182 25 -15 48 -28 52 -28 8 0 79 94 79 104 0 3 -22 17
-49 31 -53 26 -91 70 -109 122 -10 31 -9 33 33 57 57 34 85 91 85 174 0 101
-37 167 -115 203 -33 15 -66 19 -187 19 l-148 0 0 -345z m285 200 c20 -19 25
-34 25 -74 0 -43 -4 -53 -31 -75 -25 -22 -41 -26 -90 -26 l-59 0 0 100 0 100
65 0 c57 0 69 -3 90 -25z"/>
<path d="M22750 2745 l0 -345 70 0 70 0 0 345 0 345 -70 0 -70 0 0 -345z"/>
<path d="M22990 3030 l0 -60 80 0 80 0 0 -285 0 -285 70 0 70 0 0 285 0 285
80 0 80 0 0 60 0 60 -230 0 -230 0 0 -60z"/>
<path d="M23509 3072 c5 -9 48 -100 95 -201 l86 -183 0 -144 0 -144 70 0 70 0
0 137 0 136 95 203 c52 112 95 206 95 209 0 3 -31 5 -70 5 -81 0 -70 13 -139
-160 l-48 -119 -36 92 c-20 51 -45 113 -57 140 l-21 47 -75 0 c-68 0 -74 -2
-65 -18z"/>
<path d="M9992 1543 l3 -178 1890 0 1890 0 0 175 0 175 -1893 3 -1892 2 2
-177z"/>
</g>
</svg>
